<svg id="Слой_1" data-name="Слой 1" xmlns="http://www.w3.org/2000/svg" viewBox="0 0 187.75 71.74"><defs><style>.cls-1{fill:#fc1202;stroke:#000;}.cls-1,.cls-2{stroke-miterlimit:10;}.cls-2{stroke:#fff;stroke-width:2px;}</style></defs><path class="cls-1" d="M58.5,96.13,69.93,64.76H81L69.54,96.13Z" transform="translate(-8.27 -64.26)"/><path class="cls-1" d="M74.31,96.13,85.74,64.76H93.5l4.37,13.83,5-13.83h10.89L102.35,96.13H91.46l2.34-6.38-3.43-7.84L85.2,96.13Z" transform="translate(-8.27 -64.26)"/><path class="cls-1" d="M107.17,96.13,118.6,64.76h10.89l-9,24.57L127,84.21l7.11-19.45H145l-7.95,21.8-12.68,9.57Z" transform="translate(-8.27 -64.26)"/><path class="cls-1" d="M9,127l9-24.59h20.7L36,109.84l-9.51,2.67,1.44-4H24.38L20,120.46h3.5l1.56-4.2h8.54L29.68,127Z" transform="translate(-8.27 -64.26)"/><path class="cls-1" d="M33.19,127,40.52,107l7.59-4.51H62.85l-7.33,20.07L47.92,127Zm11-6.74H47.8l4.25-11.6H48.43Z" transform="translate(-8.27 -64.26)"/><path class="cls-1" d="M57.74,127l9-24.59h7.64l2.54,7.71L85,102.44h7.64l-9,24.59H75.16l5.77-15.8-6.51,5.62L72,111.19,66.27,127Z" transform="translate(-8.27 -64.26)"/><path class="cls-1" d="M87.55,127l9-24.59h20.69l-4.79,13.16-14.23,5.63-2.1,5.8Zm13.22-12.86,4.2-1.63,1.44-3.85h-3.62Z" transform="translate(-8.27 -64.26)"/><path class="cls-1" d="M110.62,127l6-16.43L127,102.44h13.25l-9,24.59h-8.54l3.47-9.52h-3.62L119.16,127Zm17.07-13.51,2.22-6-5.18,4.24-.66,1.77Z" transform="translate(-8.27 -64.26)"/><path class="cls-1" d="M135,127l9-24.59h6.08l3.43,10.83,3.94-10.83H166L157,127h-8.54l1.83-5-2.68-6.15L143.55,127Z" transform="translate(-8.27 -64.26)"/><path class="cls-1" d="M166.39,127l3.08-8.44-4.64-5.21,4-10.94h8.53l-3.74,10.21h4.68L182,102.44h8.53l-4,10.94-8.46,5.21L175,127Z" transform="translate(-8.27 -64.26)"/><path class="cls-2" d="M196,131,9,135" transform="translate(-8.27 -64.26)"/></svg>